<?xml version="1.0" encoding="utf-8"?><svg xml:space="preserve" viewBox="0 0 100 100" y="0" x="0" xmlns="http://www.w3.org/2000/svg" id="圖層_1" version="1.1" width="47px" height="47px" xmlns:xlink="http://www.w3.org/1999/xlink" style="width:100%;height:100%;background-size:initial;background-repeat-y:initial;background-repeat-x:initial;background-position-y:initial;background-position-x:initial;background-origin:initial;background-image:initial;background-color:rgb(255, 255, 255);background-clip:initial;background-attachment:initial;animation-play-state:paused" ><g class="ldl-scale" style="transform-origin:50% 50%;transform:rotate(0deg) scale(0.8, 0.8);animation-play-state:paused" ><path stroke-linejoin="round" stroke-linecap="round" fill="#fff" stroke-miterlimit="10" stroke-width="3" stroke="#333" d="M27.7 15l3.4-6.3 5.2-1.2h27.3l5.2 1.2 3.4 6.3c.1 4.3-44.5 4.3-44.5 0z" style="stroke:rgb(51, 51, 51);fill:rgb(255, 255, 255);animation-play-state:paused" ></path>
<path stroke-miterlimit="10" stroke-width="3" stroke="#333" fill="#666" stroke-linejoin="round" stroke-linecap="round" d="M62.6 13.4c-8.4 3.3-16.8 3.3-25.2 0-2.2-.9-4.5 1.2-3.9 3.5 4.3 17.7 28.7 17.7 33 0 .5-2.3-1.7-4.4-3.9-3.5z" style="stroke:rgb(51, 51, 51);fill:rgb(102, 102, 102);animation-play-state:paused" ></path>
<path stroke-miterlimit="10" stroke-width="3" stroke="#333" fill="#77a4bd" stroke-linejoin="round" stroke-linecap="round" d="M78.8 88.9h0c-.4-8.6-2.2-17.5-5.4-26.7v0H26.6v0c-3.2 9.2-5 18.1-5.4 26.7h0v0l24 3.6 3.7-12.8h2.4L55 92.5l23.8-3.6h0z" style="stroke:rgb(51, 51, 51);fill:rgb(119, 164, 189);animation-play-state:paused" ></path>
<path stroke-miterlimit="10" stroke-linejoin="round" stroke-linecap="round" stroke-width="3" stroke="#333" fill="#f8b26a" d="M90 25.6c-5.4-4.4-11.3-7.7-17.7-9.9-1.6-.6-3.3-1.1-5-1.5-1.3-.3-2.5-.6-3.8-.9 0 19.7-26.9 19.7-26.9 0-1.3.2-2.6.5-3.8.9-1.7.4-3.4.9-5 1.5-6.4 2.2-12.3 5.5-17.7 9.9L17 39l10.7-4.9c-2.1 9.5-2.5 18.9-1.1 28.2h46.8c1.4-9.3 1-18.7-1.1-28.2L83 39l7-13.4z" style="stroke:rgb(51, 51, 51);fill:rgb(248, 178, 106);animation-play-state:paused" ></path>
<path d="M27.7 15l3.4-6.3 5.2-1.2L50 27.4l-11.2 7.8z" stroke-linejoin="round" stroke-linecap="round" fill="#fff" stroke-miterlimit="10" stroke-width="3" stroke="#333" style="stroke:rgb(51, 51, 51);fill:rgb(255, 255, 255);animation-play-state:paused" ></path>
<path d="M72.3 15l-3.4-6.3-5.2-1.2L50 27.4l11.2 7.8z" stroke-linejoin="round" stroke-linecap="round" fill="#fff" stroke-miterlimit="10" stroke-width="3" stroke="#333" style="stroke:rgb(51, 51, 51);fill:rgb(255, 255, 255);animation-play-state:paused" ></path>
<path stroke-linejoin="round" stroke-linecap="round" fill="#f47e60" stroke-miterlimit="10" stroke-width="3" stroke="#333" d="M25.8 53.8c16.4 1.7 32.5 1.8 48.3 0 .1-3.4 0-6.8-.3-10.2-15.9-1.3-31.8-1.3-47.6 0-.3 3.5-.5 6.9-.4 10.2z" style="stroke:rgb(51, 51, 51);fill:rgb(244, 126, 96);animation-play-state:paused" ></path>
<metadata xmlns:d="https://loading.io/stock/" style="animation-play-state:paused" ><d:name style="animation-play-state:paused" >clothes</d:name>


<d:tags style="animation-play-state:paused" >clothes,short pants,t-shirt,fat</d:tags>


<d:license style="animation-play-state:paused" >by</d:license>


<d:slug style="animation-play-state:paused" >ihryy9</d:slug></metadata></g><!-- generated by https://loading.io/ --></svg>