<?xml version="1.0" encoding="utf-8"?><svg xml:space="preserve" viewBox="0 0 100 100" y="0" x="0" xmlns="http://www.w3.org/2000/svg" id="圖層_1" version="1.1" width="47px" height="47px" xmlns:xlink="http://www.w3.org/1999/xlink" style="width:100%;height:100%;background-size:initial;background-repeat-y:initial;background-repeat-x:initial;background-position-y:initial;background-position-x:initial;background-origin:initial;background-image:initial;background-color:rgb(255, 255, 255);background-clip:initial;background-attachment:initial;animation-play-state:paused" ><g class="ldl-scale" style="transform-origin:50% 50%;transform:rotate(0deg) scale(0.8, 0.8);animation-play-state:paused" ><path d="M50 10L20.9 30h0L50 50z" stroke-miterlimit="10" stroke-linejoin="round" stroke-width="2.661" stroke="#333" fill="#a0c8d7" style="stroke:rgb(51, 51, 51);fill:rgb(160, 200, 215);animation-play-state:paused" ></path>
<path d="M20.9 30v40h0L50 50z" stroke-miterlimit="10" stroke-linejoin="round" stroke-width="2.661" stroke="#333" fill="#77a4bd" style="stroke:rgb(51, 51, 51);fill:rgb(119, 164, 189);animation-play-state:paused" ></path>
<path d="M79.1 30h0L50 10v40z" stroke-miterlimit="10" stroke-linejoin="round" stroke-width="2.661" stroke="#333" fill="#e0e0e0" style="stroke:rgb(51, 51, 51);fill:rgb(224, 224, 224);animation-play-state:paused" ></path>
<path d="M79.1 30L50 50l29.1 20h0z" stroke-miterlimit="10" stroke-linejoin="round" stroke-width="2.661" stroke="#333" fill="#a0c8d7" style="stroke:rgb(51, 51, 51);fill:rgb(160, 200, 215);animation-play-state:paused" ></path>
<path d="M50 90l29.1-20L50 50z" stroke-miterlimit="10" stroke-linejoin="round" stroke-width="2.661" stroke="#333" fill="#77a4bd" style="stroke:rgb(51, 51, 51);fill:rgb(119, 164, 189);animation-play-state:paused" ></path>
<path d="M20.9 70L50 90V50z" stroke-miterlimit="10" stroke-linejoin="round" stroke-width="2.661" stroke="#333" fill="#666" style="stroke:rgb(51, 51, 51);fill:rgb(102, 102, 102);animation-play-state:paused" ></path>
<path d="M50 25.8L33.8 37.9v24.2L50 74.2l16.2-12.1V37.9z" stroke-miterlimit="10" stroke-linejoin="round" stroke-width="2.557" stroke="#333" fill="#fff" style="stroke:rgb(51, 51, 51);fill:rgb(255, 255, 255);animation-play-state:paused" ></path>
<path d="M35 61.5l15 11.1 15-11.1V40.4L35 61.3z" fill="none" style="animation-play-state:paused" ></path>
<path d="M60.5 35.2L35 53v3.1l27.6-19.3z" fill="none" style="animation-play-state:paused" ></path>
<path d="M50 27.4L35 38.5v5.4l19.2-13.4z" fill="none" style="animation-play-state:paused" ></path>
<path d="M54.2 30.5L35 43.9V53l25.5-17.8z" fill="#a0c8d7" style="fill:rgb(160, 200, 215);animation-play-state:paused" ></path>
<path d="M62.6 36.8L35 56.1v5.2l30-20.9v-1.9z" fill="#a0c8d7" style="fill:rgb(160, 200, 215);animation-play-state:paused" ></path>
<metadata xmlns:d="https://loading.io/stock/" style="animation-play-state:paused" ><d:name style="animation-play-state:paused" >ruby</d:name>
<d:tags style="animation-play-state:paused" >gem,jewelry,money,treasure,value,luxury,ruby,ruby,web application</d:tags>
<d:license style="animation-play-state:paused" >pro</d:license>
<d:slug style="animation-play-state:paused" >dciq66</d:slug></metadata></g><!-- generated by https://loading.io/ --></svg>